<svg width="1160" height="469" viewBox="0 0 1160 469" fill="none" xmlns="http://www.w3.org/2000/svg">
<path d="M47.6729 180.64V401.36C47.6729 404.75 48.5156 407.802 50.201 410.514C52.1272 412.888 54.2942 414.074 56.7019 414.074H126.405C127.609 414.074 128.572 414.583 129.295 415.6C130.017 416.617 130.378 417.804 130.378 419.16V463.914C130.378 465.27 130.017 466.457 129.295 467.474C128.572 468.491 127.609 469 126.405 469H39.0051C28.4111 469 19.2618 463.575 11.5571 452.726C3.85236 441.876 0 428.992 0 414.074V167.926C0 153.008 3.85236 140.124 11.5571 129.274C19.2618 118.425 28.4111 113 39.0051 113H126.405C127.609 113 128.572 113.509 129.295 114.526C130.017 115.543 130.378 116.73 130.378 118.086V162.84C130.378 164.196 130.017 165.383 129.295 166.4C128.572 167.417 127.609 167.926 126.405 167.926H56.7019C54.2942 167.926 52.1272 169.282 50.201 171.994C48.5156 174.368 47.6729 177.25 47.6729 180.64ZM137.904 414.074V167.926C137.904 153.008 141.756 140.124 149.461 129.274C157.165 118.425 166.315 113 176.909 113H228.915C239.75 113 249.02 118.425 256.725 129.274C264.429 140.124 268.282 153.008 268.282 167.926V414.074C268.282 428.992 264.429 441.876 256.725 452.726C249.02 463.575 239.75 469 228.915 469H176.909C166.315 469 157.165 463.575 149.461 452.726C141.756 441.876 137.904 428.992 137.904 414.074ZM185.576 180.64V401.36C185.576 404.75 186.419 407.802 188.105 410.514C190.031 412.888 192.198 414.074 194.605 414.074H211.58C213.988 414.074 216.034 412.888 217.72 410.514C219.405 407.802 220.248 404.75 220.248 401.36V180.64C220.248 178.267 219.886 176.232 219.164 174.537C218.442 172.503 217.358 170.977 215.914 169.96C214.469 168.604 213.024 167.926 211.58 167.926H194.605C192.198 167.926 190.031 169.282 188.105 171.994C186.419 174.368 185.576 177.25 185.576 180.64ZM288.966 113H346.752C348.919 113 350.123 114.526 350.363 117.577L362.282 226.411L374.561 117.577C374.802 114.526 376.006 113 378.173 113H435.958C436.921 113 437.764 113.509 438.486 114.526C439.208 115.543 439.57 116.73 439.57 118.086V463.914C439.57 465.27 439.208 466.457 438.486 467.474C437.764 468.491 436.921 469 435.958 469H395.508C394.304 469 393.341 468.491 392.619 467.474C391.897 466.457 391.535 465.27 391.535 463.914V318.463L382.507 400.343C382.266 403.055 381.062 404.411 378.895 404.411H345.668C343.742 404.411 342.538 403.055 342.057 400.343L333.028 318.463V463.914C333.028 465.27 332.667 466.457 331.944 467.474C331.222 468.491 330.379 469 329.416 469H288.966C288.003 469 287.161 468.491 286.438 467.474C285.716 466.457 285.355 465.27 285.355 463.914V118.086C285.355 114.695 286.559 113 288.966 113ZM539.814 257.434V180.64C539.814 177.25 538.971 174.368 537.286 171.994C535.6 169.282 533.554 167.926 531.146 167.926H508.754C507.791 167.926 506.948 168.434 506.226 169.451C505.504 170.469 505.143 171.655 505.143 173.011V264.554C505.143 265.91 505.504 267.097 506.226 268.114C506.948 269.131 507.791 269.64 508.754 269.64H531.146C533.554 269.64 535.6 268.453 537.286 266.08C538.971 263.707 539.814 260.825 539.814 257.434ZM457.47 118.086C457.47 114.695 458.674 113 461.081 113H548.482C559.316 113 568.586 118.425 576.291 129.274C583.996 140.124 587.848 153.008 587.848 167.926V269.64C587.848 284.897 583.996 297.95 576.291 308.8C568.586 319.31 559.316 324.566 548.482 324.566H508.754C507.791 324.566 506.948 325.074 506.226 326.091C505.504 327.109 505.143 328.295 505.143 329.651V463.914C505.143 465.27 504.782 466.457 504.059 467.474C503.337 468.491 502.494 469 501.531 469H461.081C460.118 469 459.276 468.491 458.553 467.474C457.831 466.457 457.47 465.27 457.47 463.914V118.086ZM601.083 113H641.533C642.496 113 643.339 113.509 644.061 114.526C644.783 115.543 645.145 116.73 645.145 118.086V401.36C645.145 404.75 645.987 407.802 647.673 410.514C649.599 412.888 651.766 414.074 654.174 414.074H671.148C673.556 414.074 675.602 412.888 677.288 410.514C678.973 407.802 679.816 404.75 679.816 401.36V118.086C679.816 114.695 681.02 113 683.427 113H723.877C725.081 113 726.044 113.509 726.766 114.526C727.489 115.543 727.85 116.73 727.85 118.086V414.074C727.85 428.992 723.997 441.876 716.293 452.726C708.588 463.575 699.318 469 688.484 469H636.477C625.883 469 616.733 463.575 609.029 452.726C601.324 441.876 597.472 428.992 597.472 414.074V118.086C597.472 116.73 597.833 115.543 598.555 114.526C599.277 113.509 600.12 113 601.083 113ZM736.961 113H859.755C860.958 113 861.922 113.509 862.644 114.526C863.366 115.543 863.727 116.73 863.727 118.086V162.84C863.727 164.196 863.366 165.383 862.644 166.4C861.922 167.417 860.958 167.926 859.755 167.926H825.806C824.843 167.926 824 168.434 823.278 169.451C822.555 170.469 822.194 171.655 822.194 173.011V463.914C822.194 465.27 821.833 466.457 821.111 467.474C820.388 468.491 819.546 469 818.583 469H778.133C777.17 469 776.327 468.491 775.605 467.474C774.882 466.457 774.521 465.27 774.521 463.914V173.011C774.521 171.655 774.16 170.469 773.438 169.451C772.715 168.434 771.873 167.926 770.91 167.926H736.961C735.998 167.926 735.155 167.417 734.433 166.4C733.71 165.383 733.349 164.196 733.349 162.84V118.086C733.349 116.73 733.71 115.543 734.433 114.526C735.155 113.509 735.998 113 736.961 113ZM872.674 113H995.468C996.672 113 997.635 113.509 998.358 114.526C999.08 115.543 999.441 116.73 999.441 118.086V162.84C999.441 166.23 998.117 167.926 995.468 167.926H920.347C919.384 167.926 918.542 168.434 917.819 169.451C917.097 170.469 916.736 171.655 916.736 173.011V258.451C916.736 259.808 917.097 260.994 917.819 262.011C918.542 263.029 919.384 263.537 920.347 263.537H947.434C948.397 263.537 949.24 264.046 949.962 265.063C950.685 266.08 951.046 267.267 951.046 268.623V313.377C951.046 314.733 950.685 315.92 949.962 316.937C949.24 317.954 948.397 318.463 947.434 318.463H920.347C919.384 318.463 918.542 318.971 917.819 319.989C917.097 321.006 916.736 322.192 916.736 323.549V408.989C916.736 410.345 917.097 411.531 917.819 412.549C918.542 413.566 919.384 414.074 920.347 414.074H995.468C996.672 414.074 997.635 414.583 998.358 415.6C999.08 416.617 999.441 417.804 999.441 419.16V463.914C999.441 467.305 998.117 469 995.468 469H872.674C871.711 469 870.869 468.491 870.146 467.474C869.424 466.457 869.063 465.27 869.063 463.914V118.086C869.063 116.73 869.424 115.543 870.146 114.526C870.869 113.509 871.711 113 872.674 113ZM1159.71 120.12L1105.18 291L1159.71 461.88C1160.19 463.575 1160.07 465.27 1159.35 466.966C1158.63 468.322 1157.66 469 1156.46 469H1112.04C1110.35 469 1109.27 467.983 1108.79 465.949L1078.81 372.88L1049.2 465.949C1048.47 467.983 1047.39 469 1045.95 469H1001.52C1000.32 469 999.357 468.322 998.634 466.966C997.912 465.27 997.792 463.575 998.273 461.88L1052.81 291L998.273 120.12C997.792 118.425 997.912 116.899 998.634 115.543C999.357 113.848 1000.32 113 1001.52 113H1045.95C1047.39 113 1048.47 114.017 1049.2 116.051L1078.81 209.12L1108.79 116.051C1109.27 114.017 1110.35 113 1112.04 113H1156.46C1157.66 113 1158.63 113.848 1159.35 115.543C1160.07 116.899 1160.19 118.425 1159.71 120.12Z" fill="#FA5B18"/>
<path d="M1119.2 45.0801C1119.2 42.6549 1119.54 40.3926 1120.22 38.293C1120.92 36.1934 1121.88 34.3704 1123.1 32.8242C1124.34 31.2617 1125.78 29.9271 1127.42 28.8203C1129.07 27.6973 1130.86 26.859 1132.79 26.3057C1134.73 25.736 1136.74 25.4512 1138.82 25.4512C1141.44 25.4512 1143.96 25.9476 1146.37 26.9404C1148.79 27.9333 1150.92 29.2923 1152.74 31.0176C1154.56 32.7428 1156.02 34.8506 1157.11 37.3408C1158.2 39.8311 1158.75 42.4922 1158.75 45.3242C1158.75 47.8145 1158.21 50.2396 1157.13 52.5996C1156.06 54.9596 1154.64 57.0186 1152.86 58.7764C1151.09 60.5179 1149 61.9176 1146.59 62.9756C1144.2 64.0335 1141.74 64.5625 1139.21 64.5625C1135.49 64.5625 1131.91 63.5534 1128.47 61.5352C1127.11 60.7376 1125.89 59.8099 1124.83 58.752C1123.78 57.6777 1122.92 56.6035 1122.27 55.5293C1121.64 54.4551 1121.09 53.2832 1120.64 52.0137C1120.2 50.7279 1119.87 49.556 1119.66 48.498C1119.46 47.4238 1119.31 46.2845 1119.2 45.0801ZM1139.21 31.1641C1137.29 31.1641 1135.5 31.5384 1133.82 32.2871C1132.14 33.0358 1130.72 34.0449 1129.55 35.3145C1128.38 36.584 1127.41 38.0326 1126.64 39.6602C1125.89 41.2715 1125.38 42.9805 1125.1 44.7871C1125.1 47.2122 1125.71 49.499 1126.93 51.6475C1128.16 53.7796 1129.81 55.4886 1131.89 56.7744C1133.99 58.0602 1136.25 58.7031 1138.68 58.7031C1140.52 58.7031 1142.28 58.3369 1143.98 57.6045C1145.68 56.8558 1147.17 55.8467 1148.42 54.5771C1149.69 53.3076 1150.7 51.7777 1151.45 49.9873C1152.21 48.1807 1152.59 46.2682 1152.59 44.25C1152.59 41.8574 1151.98 39.6602 1150.74 37.6582C1149.5 35.6562 1147.86 34.0856 1145.81 32.9463C1143.77 31.807 1141.57 31.2129 1139.21 31.1641ZM1139.07 49.9141C1139.56 49.9141 1139.96 49.8408 1140.26 49.6943C1140.59 49.5316 1140.82 49.3363 1140.95 49.1084C1141.09 48.8805 1141.25 48.6283 1141.41 48.3516C1141.59 48.0749 1141.77 47.8226 1141.95 47.5947C1142.13 47.3669 1142.42 47.1797 1142.83 47.0332C1143.24 46.8704 1143.74 46.7891 1144.34 46.7891H1147.17C1147.52 46.7891 1147.79 46.8053 1148 46.8379C1148.23 46.8704 1148.44 46.9681 1148.61 47.1309C1148.79 47.2773 1148.88 47.4889 1148.88 47.7656C1148.49 50.2884 1147.46 52.3148 1145.78 53.8447C1144.12 55.3584 1142.13 56.1152 1139.8 56.1152C1138.25 56.1152 1136.84 55.8955 1135.55 55.4561C1134.28 55.0166 1133.23 54.4307 1132.38 53.6982C1131.53 52.9658 1130.82 52.1113 1130.23 51.1348C1129.64 50.1419 1129.22 49.1165 1128.96 48.0586C1128.7 46.9844 1128.57 45.8776 1128.57 44.7383C1128.57 43.1107 1128.89 41.6051 1129.52 40.2217C1130.16 38.8219 1131 37.6663 1132.04 36.7549C1133.08 35.8434 1134.25 35.1354 1135.55 34.6309C1136.87 34.11 1138.22 33.8496 1139.61 33.8496C1142.11 33.8496 1144.11 34.5658 1145.61 35.998C1147.11 37.4141 1148.13 39.3184 1148.69 41.7109C1148.69 42.2318 1148.13 42.4922 1147.03 42.4922H1142.88C1142.52 42.3457 1142.22 42.1016 1141.97 41.7598C1141.75 41.4017 1141.57 41.0762 1141.46 40.7832C1141.36 40.474 1141.14 40.2054 1140.78 39.9775C1140.44 39.7334 1139.96 39.6113 1139.36 39.6113C1138.61 39.6113 1137.97 39.7822 1137.43 40.124C1136.9 40.4658 1136.48 40.9134 1136.19 41.4668C1135.91 42.0202 1135.71 42.5898 1135.58 43.1758C1135.46 43.7617 1135.41 44.3639 1135.41 44.9824C1135.41 46.3496 1135.71 47.5133 1136.31 48.4736C1136.93 49.4339 1137.85 49.9141 1139.07 49.9141Z" fill="#FA5B18"/>
</svg>
